# Blender 5.1.0
# www.blender.org
mtllib Arm1.mtl
o Arm1
v -2.458205 6.995181 -3.211319
v -2.458205 6.215374 -2.444728
v -2.458205 6.208553 -1.646651
v -2.458205 6.975145 -0.866843
v -2.458207 20.050230 -2.326495
v -2.458207 19.283640 -3.106301
v -2.458207 19.263605 -0.761827
v -2.458207 20.043411 -1.528418
v -1.216153 6.215374 -2.444728
v -1.216153 6.995181 -3.211319
v -1.216153 6.975145 -0.866843
v -1.216153 6.208553 -1.646651
v -1.216154 19.283640 -3.106302
v -1.216154 20.050230 -2.326495
v -1.216154 20.043411 -1.528418
v -1.216154 19.263605 -0.761826
v -1.133065 7.380793 -2.042385
v -1.144758 18.874584 -1.937474
vn -0.0000 -0.7131 0.7010
vn -0.0000 0.7010 0.7131
vn -0.0000 -0.7010 -0.7131
vn -0.0000 0.7131 -0.7010
vn -0.0000 -1.0000 -0.0085
vn -0.0000 0.0085 -1.0000
vn -0.0000 -0.0085 1.0000
vn -0.0000 1.0000 0.0085
vn 1.0000 -0.0000 -0.0000
vn -1.0000 -0.0000 -0.0000
vt 0.000000 0.000000
s 0
usemtl Arm_Material
f 3/1/1 12/1/1 11/1/1 4/1/1
f 15/1/2 8/1/2 7/1/2 16/1/2
f 1/1/3 10/1/3 9/1/3 2/1/3
f 5/1/4 14/1/4 13/1/4 6/1/4
f 3/1/5 2/1/5 9/1/5 12/1/5
f 1/1/6 6/1/6 13/1/6 10/1/6
f 7/1/7 4/1/7 11/1/7 16/1/7
f 5/1/8 8/1/8 15/1/8 14/1/8
f 12/1/9 9/1/9 10/1/9 11/1/9
f 13/1/9 16/1/9 11/1/9 10/1/9
f 16/1/9 13/1/9 14/1/9 15/1/9
f 4/1/10 1/1/10 2/1/10 3/1/10
f 4/1/10 7/1/10 6/1/10 1/1/10
f 8/1/10 5/1/10 6/1/10 7/1/10
